<mxfile host="app.diagrams.net" modified="2024-05-15T10:00:57.997Z" agent="Mozilla/5.0 (Windows NT 10.0; Win64; x64) AppleWebKit/537.36 (KHTML, like Gecko) Chrome/123.0.0.0 Safari/537.36 OPR/109.0.0.0" etag="YzxbtQ3gGKh51TSuY0-f" version="24.4.0" type="device">
  <diagram name="Page-1" id="PB29v7prjHKwL8QknSaz">
    <mxGraphModel dx="2597" dy="955" grid="1" gridSize="10" guides="1" tooltips="1" connect="1" arrows="1" fold="1" page="1" pageScale="1" pageWidth="850" pageHeight="1100" math="0" shadow="0">
      <root>
        <mxCell id="0" />
        <mxCell id="1" parent="0" />
        <mxCell id="Ljo6RRPdN7-MXEj0_Jh4-21" style="edgeStyle=orthogonalEdgeStyle;rounded=0;orthogonalLoop=1;jettySize=auto;html=1;exitX=0.75;exitY=1;exitDx=0;exitDy=0;entryX=0.5;entryY=0;entryDx=0;entryDy=0;" parent="1" source="Ljo6RRPdN7-MXEj0_Jh4-1" target="Ljo6RRPdN7-MXEj0_Jh4-13" edge="1">
          <mxGeometry relative="1" as="geometry" />
        </mxCell>
        <mxCell id="Ljo6RRPdN7-MXEj0_Jh4-55" style="edgeStyle=orthogonalEdgeStyle;rounded=0;orthogonalLoop=1;jettySize=auto;html=1;exitX=0.5;exitY=1;exitDx=0;exitDy=0;entryX=0.5;entryY=0;entryDx=0;entryDy=0;" parent="1" source="Ljo6RRPdN7-MXEj0_Jh4-1" target="Ljo6RRPdN7-MXEj0_Jh4-16" edge="1">
          <mxGeometry relative="1" as="geometry" />
        </mxCell>
        <mxCell id="Ljo6RRPdN7-MXEj0_Jh4-56" style="edgeStyle=orthogonalEdgeStyle;rounded=0;orthogonalLoop=1;jettySize=auto;html=1;exitX=0.25;exitY=1;exitDx=0;exitDy=0;entryX=0.5;entryY=0;entryDx=0;entryDy=0;" parent="1" source="Ljo6RRPdN7-MXEj0_Jh4-1" target="Ljo6RRPdN7-MXEj0_Jh4-7" edge="1">
          <mxGeometry relative="1" as="geometry" />
        </mxCell>
        <mxCell id="Ljo6RRPdN7-MXEj0_Jh4-1" value="ESP Slave" style="rounded=0;whiteSpace=wrap;html=1;" parent="1" vertex="1">
          <mxGeometry x="120" y="190" width="120" height="60" as="geometry" />
        </mxCell>
        <mxCell id="Ljo6RRPdN7-MXEj0_Jh4-2" value="Raspberry Pi Master" style="rounded=0;whiteSpace=wrap;html=1;" parent="1" vertex="1">
          <mxGeometry x="460" y="190" width="120" height="60" as="geometry" />
        </mxCell>
        <mxCell id="Ljo6RRPdN7-MXEj0_Jh4-4" value="NodeRed" style="ellipse;whiteSpace=wrap;html=1;aspect=fixed;" parent="1" vertex="1">
          <mxGeometry x="320" y="70" width="80" height="80" as="geometry" />
        </mxCell>
        <mxCell id="Ljo6RRPdN7-MXEj0_Jh4-10" value="" style="group;rotation=90;" parent="1" vertex="1" connectable="0">
          <mxGeometry x="30" y="290" width="90" height="100" as="geometry" />
        </mxCell>
        <mxCell id="Ljo6RRPdN7-MXEj0_Jh4-7" value="Skull Head" style="ellipse;whiteSpace=wrap;html=1;aspect=fixed;" parent="Ljo6RRPdN7-MXEj0_Jh4-10" vertex="1">
          <mxGeometry x="10" width="80" height="80" as="geometry" />
        </mxCell>
        <mxCell id="Ljo6RRPdN7-MXEj0_Jh4-8" value="" style="rounded=1;whiteSpace=wrap;html=1;direction=south;" parent="Ljo6RRPdN7-MXEj0_Jh4-10" vertex="1">
          <mxGeometry x="10" y="50" width="50" height="50" as="geometry" />
        </mxCell>
        <mxCell id="Ljo6RRPdN7-MXEj0_Jh4-9" value="" style="triangle;whiteSpace=wrap;html=1;direction=west;" parent="Ljo6RRPdN7-MXEj0_Jh4-10" vertex="1">
          <mxGeometry y="40" width="20" height="30" as="geometry" />
        </mxCell>
        <mxCell id="Ljo6RRPdN7-MXEj0_Jh4-12" value="" style="group" parent="1" vertex="1" connectable="0">
          <mxGeometry x="230" y="300" width="90" height="100" as="geometry" />
        </mxCell>
        <mxCell id="Ljo6RRPdN7-MXEj0_Jh4-13" value="Skull Hand" style="ellipse;whiteSpace=wrap;html=1;aspect=fixed;" parent="Ljo6RRPdN7-MXEj0_Jh4-12" vertex="1">
          <mxGeometry x="10" width="80" height="80" as="geometry" />
        </mxCell>
        <mxCell id="Ljo6RRPdN7-MXEj0_Jh4-14" value="" style="rounded=1;whiteSpace=wrap;html=1;direction=south;" parent="Ljo6RRPdN7-MXEj0_Jh4-12" vertex="1">
          <mxGeometry x="10" y="50" width="50" height="50" as="geometry" />
        </mxCell>
        <mxCell id="Ljo6RRPdN7-MXEj0_Jh4-15" value="" style="triangle;whiteSpace=wrap;html=1;direction=west;" parent="Ljo6RRPdN7-MXEj0_Jh4-12" vertex="1">
          <mxGeometry y="40" width="20" height="30" as="geometry" />
        </mxCell>
        <mxCell id="Ljo6RRPdN7-MXEj0_Jh4-16" value="Servo Arm" style="shape=trapezoid;perimeter=trapezoidPerimeter;whiteSpace=wrap;html=1;fixedSize=1;" parent="1" vertex="1">
          <mxGeometry x="120" y="430" width="120" height="60" as="geometry" />
        </mxCell>
        <mxCell id="Ljo6RRPdN7-MXEj0_Jh4-26" value="Skull Head" style="swimlane;horizontal=0;whiteSpace=wrap;html=1;" parent="1" vertex="1">
          <mxGeometry x="-200" y="280" width="200" height="200" as="geometry" />
        </mxCell>
        <mxCell id="Ljo6RRPdN7-MXEj0_Jh4-37" value="2x RGB LED" style="text;html=1;align=center;verticalAlign=middle;resizable=0;points=[];autosize=1;strokeColor=none;fillColor=none;" parent="Ljo6RRPdN7-MXEj0_Jh4-26" vertex="1">
          <mxGeometry x="95" y="38" width="90" height="30" as="geometry" />
        </mxCell>
        <mxCell id="Ljo6RRPdN7-MXEj0_Jh4-42" value="Speakers" style="text;html=1;align=center;verticalAlign=middle;resizable=0;points=[];autosize=1;strokeColor=none;fillColor=none;" parent="Ljo6RRPdN7-MXEj0_Jh4-26" vertex="1">
          <mxGeometry x="105" y="68" width="70" height="30" as="geometry" />
        </mxCell>
        <mxCell id="Ljo6RRPdN7-MXEj0_Jh4-35" value="Servo Motor Mini" style="text;html=1;align=center;verticalAlign=middle;resizable=0;points=[];autosize=1;strokeColor=none;fillColor=none;" parent="Ljo6RRPdN7-MXEj0_Jh4-26" vertex="1">
          <mxGeometry x="85" y="8" width="110" height="30" as="geometry" />
        </mxCell>
        <mxCell id="Ljo6RRPdN7-MXEj0_Jh4-32" value="" style="endArrow=classic;html=1;rounded=0;entryX=1;entryY=0;entryDx=0;entryDy=0;exitX=0.13;exitY=0.77;exitDx=0;exitDy=0;exitPerimeter=0;" parent="1" target="Ljo6RRPdN7-MXEj0_Jh4-1" edge="1">
          <mxGeometry width="50" height="50" relative="1" as="geometry">
            <mxPoint x="320.5999999999999" y="111.60000000000036" as="sourcePoint" />
            <mxPoint x="220" y="70" as="targetPoint" />
          </mxGeometry>
        </mxCell>
        <mxCell id="Ljo6RRPdN7-MXEj0_Jh4-33" value="Contains:" style="text;html=1;align=center;verticalAlign=middle;resizable=0;points=[];autosize=1;strokeColor=none;fillColor=none;" parent="1" vertex="1">
          <mxGeometry x="-175" y="288" width="70" height="30" as="geometry" />
        </mxCell>
        <mxCell id="Ljo6RRPdN7-MXEj0_Jh4-44" value="Skull Hand" style="swimlane;horizontal=0;whiteSpace=wrap;html=1;startSize=23;" parent="1" vertex="1">
          <mxGeometry x="360" y="280" width="200" height="200" as="geometry" />
        </mxCell>
        <mxCell id="Ljo6RRPdN7-MXEj0_Jh4-45" value="2x RGB LED" style="text;html=1;align=center;verticalAlign=middle;resizable=0;points=[];autosize=1;strokeColor=none;fillColor=none;" parent="Ljo6RRPdN7-MXEj0_Jh4-44" vertex="1">
          <mxGeometry x="95" y="38" width="90" height="30" as="geometry" />
        </mxCell>
        <mxCell id="Ljo6RRPdN7-MXEj0_Jh4-46" value="Speakers" style="text;html=1;align=center;verticalAlign=middle;resizable=0;points=[];autosize=1;strokeColor=none;fillColor=none;" parent="Ljo6RRPdN7-MXEj0_Jh4-44" vertex="1">
          <mxGeometry x="105" y="68" width="70" height="30" as="geometry" />
        </mxCell>
        <mxCell id="Ljo6RRPdN7-MXEj0_Jh4-47" value="Neo Pixel Ring 8" style="text;html=1;align=center;verticalAlign=middle;resizable=0;points=[];autosize=1;strokeColor=none;fillColor=none;" parent="Ljo6RRPdN7-MXEj0_Jh4-44" vertex="1">
          <mxGeometry x="85" y="98" width="110" height="30" as="geometry" />
        </mxCell>
        <mxCell id="Ljo6RRPdN7-MXEj0_Jh4-51" value="Contains:" style="text;html=1;align=center;verticalAlign=middle;resizable=0;points=[];autosize=1;strokeColor=none;fillColor=none;" parent="Ljo6RRPdN7-MXEj0_Jh4-44" vertex="1">
          <mxGeometry x="25" y="8" width="70" height="30" as="geometry" />
        </mxCell>
        <mxCell id="Ljo6RRPdN7-MXEj0_Jh4-50" value="Servo Motor Mini" style="text;html=1;align=center;verticalAlign=middle;resizable=0;points=[];autosize=1;strokeColor=none;fillColor=none;" parent="Ljo6RRPdN7-MXEj0_Jh4-44" vertex="1">
          <mxGeometry x="85" y="8" width="110" height="30" as="geometry" />
        </mxCell>
        <mxCell id="Ljo6RRPdN7-MXEj0_Jh4-48" style="edgeStyle=orthogonalEdgeStyle;rounded=0;orthogonalLoop=1;jettySize=auto;html=1;exitX=0;exitY=0;exitDx=0;exitDy=0;entryX=1;entryY=0;entryDx=0;entryDy=0;" parent="1" source="Ljo6RRPdN7-MXEj0_Jh4-7" target="Ljo6RRPdN7-MXEj0_Jh4-26" edge="1">
          <mxGeometry relative="1" as="geometry" />
        </mxCell>
        <mxCell id="Ljo6RRPdN7-MXEj0_Jh4-49" style="edgeStyle=orthogonalEdgeStyle;rounded=0;orthogonalLoop=1;jettySize=auto;html=1;exitX=1;exitY=0;exitDx=0;exitDy=0;entryX=0;entryY=0;entryDx=0;entryDy=0;" parent="1" source="Ljo6RRPdN7-MXEj0_Jh4-13" target="Ljo6RRPdN7-MXEj0_Jh4-44" edge="1">
          <mxGeometry relative="1" as="geometry" />
        </mxCell>
        <mxCell id="Ljo6RRPdN7-MXEj0_Jh4-57" value="" style="shape=flexArrow;endArrow=classic;html=1;rounded=0;" parent="1" edge="1">
          <mxGeometry width="50" height="50" relative="1" as="geometry">
            <mxPoint x="240" y="490" as="sourcePoint" />
            <mxPoint x="280" y="400" as="targetPoint" />
          </mxGeometry>
        </mxCell>
        <mxCell id="Ljo6RRPdN7-MXEj0_Jh4-59" value="" style="endArrow=classic;html=1;rounded=0;entryX=0.8;entryY=0.8;entryDx=0;entryDy=0;entryPerimeter=0;exitX=0;exitY=0;exitDx=0;exitDy=0;" parent="1" source="Ljo6RRPdN7-MXEj0_Jh4-2" edge="1">
          <mxGeometry width="50" height="50" relative="1" as="geometry">
            <mxPoint x="210" y="250" as="sourcePoint" />
            <mxPoint x="401" y="114.00000000000045" as="targetPoint" />
          </mxGeometry>
        </mxCell>
      </root>
    </mxGraphModel>
  </diagram>
</mxfile>
